<?xml version="1.0" encoding="utf-8"?>
<!-- Generator: Adobe Illustrator 16.0.0, SVG Export Plug-In . SVG Version: 6.00 Build 0)  -->
<!DOCTYPE svg PUBLIC "-//W3C//DTD SVG 1.1//EN" "http://www.w3.org/Graphics/SVG/1.1/DTD/svg11.dtd">
<svg version="1.1" id="Layer_1" xmlns="http://www.w3.org/2000/svg" xmlns:xlink="http://www.w3.org/1999/xlink" x="0px" y="0px"
	 width="181px" height="50.393px" viewBox="-75 -9.143 181 50.393" enable-background="new -75 -9.143 181 50.393"
	 xml:space="preserve">
<g>
	<g>
		<path fill="#FFFFFF" d="M13.753,30.582h1.111l5.731,7.898v-7.898h0.98v9.575h-0.935l-5.905-8.131v8.131h-0.984V30.582z"/>
		<path fill="#FFFFFF" d="M24.02,30.582h6.337v0.969h-5.315v3.163h5.188v0.964h-5.188v3.551h5.362v0.929H24.02V30.582L24.02,30.582z
			"/>
		<path fill="#FFFFFF" d="M35.487,31.551h-3.593v-0.969h8.212v0.969h-3.598v8.606h-1.021V31.551L35.487,31.551z"/>
		<path fill="#FFFFFF" d="M41.349,30.582h1.045l2.519,7.928l2.576-7.928h0.877l2.56,7.928l2.536-7.928h0.98l-3.076,9.646h-0.882
			L47.9,32.253l-2.57,7.975h-0.894L41.349,30.582z"/>
		<path fill="#FFFFFF" d="M55.358,35.364c0-3.413,1.747-4.939,4.812-4.939c3.075,0,4.834,1.526,4.834,4.939
			c0,3.424-1.759,4.956-4.834,4.956C57.105,40.32,55.358,38.788,55.358,35.364z M63.982,35.375c0-2.588-1.201-3.98-3.812-3.98
			c-2.601,0-3.79,1.393-3.79,3.98c0,2.601,1.189,3.999,3.79,3.999C62.781,39.374,63.982,37.976,63.982,35.375z"/>
		<path fill="#FFFFFF" d="M70.952,36.258H68.08v3.899h-0.993v-9.575h4.139c2.223,0,3.227,0.894,3.227,2.791
			c0,1.654-0.784,2.623-2.449,2.844l2.31,3.94h-1.085L70.952,36.258z M71.236,35.329c1.358,0,2.194-0.418,2.194-1.927
			c0-1.491-0.812-1.881-2.229-1.881H68.08v3.808H71.236L71.236,35.329z"/>
		<path fill="#FFFFFF" d="M79.536,35.079l-1.915,2.096v2.982h-0.993v-9.575h0.993v5.287l4.852-5.287h1.172l-3.436,3.761l3.906,5.814
			H82.96L79.536,35.079z"/>
		<path fill="#FFFFFF" d="M84.968,39.194l0.517-0.778c1.149,0.72,2.275,0.97,3.43,0.97c1.974,0,2.855-0.558,2.855-1.875
			c0-1.357-1.138-1.555-2.855-1.862c-2.071-0.366-3.471-0.714-3.471-2.652c0-1.846,1.19-2.571,3.471-2.571
			c1.497,0,2.571,0.337,3.331,0.854L91.7,32.103c-0.685-0.453-1.706-0.743-2.786-0.743c-1.724,0-2.461,0.476-2.461,1.613
			c0,1.219,0.999,1.451,2.705,1.759c2.089,0.377,3.609,0.685,3.609,2.739c0,1.903-1.219,2.82-3.83,2.82
			C87.486,40.291,86.187,39.995,84.968,39.194z"/>
	</g>
	<g>
		<g>
			<g>
				<path fill="#FFFFFF" d="M102.779-9.016C89.309-9.016,88.74-2.98,88.74,5.534v20.899h3.175V5.534
					c0-6.418-0.256-11.563,10.864-11.563c1.189,0,2.245,0.061,3.197,0.174v-3.027C105.002-8.969,103.939-9.016,102.779-9.016z"/>
			</g>
			<path fill="#FFFFFF" d="M-54.311,12.837V-8.316h3.241v21.218c0,6.097-0.064,11.244,11.117,11.244
				c11.117,0,10.864-5.147,10.864-11.563V-8.316h3.177v20.898c0,8.517-0.575,14.553-14.042,14.553
				C-53.484,27.135-54.311,21.099-54.311,12.837z"/>
			<path fill="#FFFFFF" d="M7.859,5.278v21.154H4.618V5.215c0-6.1,0.064-11.245-11.117-11.245c-11.117,0-10.861,5.145-10.861,11.563
				v20.899h-3.177V5.534c0-8.514,0.572-14.549,14.039-14.549C7.032-9.016,7.859-2.98,7.859,5.278z"/>
			<path fill="#FFFFFF" d="M13.753-8.252h3.11v34.685h-3.11V-8.252z"/>
			<path fill="#FFFFFF" d="M22.685-8.252h16.238c8.056,0,11.706,4.001,11.706,11.117c0,7.162-3.604,11.517-11.747,11.517H25.795
				v12.051h-3.11V-8.252z M38.969,11.262c5.618,0,8.404-2.733,8.404-8.258c0-5.522-3.007-8.142-8.543-8.142H25.795v16.4H38.969z"/>
			<path fill="#FFFFFF" d="M54.244,8.964c0-10.229,2.925-18.107,16.018-18.107c13.528,0,13.975,9.082,13.911,18.675H57.366
				c0.059,8.45,2.159,14.741,13.146,14.741c5.844,0,8.514-1.59,11.369-3.686l1.781,2.351c-3.175,2.351-6.924,4.196-13.15,4.196
				C56.792,27.135,54.244,19.189,54.244,8.964z M57.425,6.61h23.632C80.743-0.313,80.296-6.221,70.192-6.221
				C60.477-6.221,57.808-0.949,57.425,6.61z"/>
			<g>
				<path fill="#FFFFFF" d="M-73.816,33.959c13.467,0,14.039-6.035,14.039-14.549V-8.316h-3.175V19.41
					c0,6.413,0.252,11.566-10.864,11.566c-0.42,0-0.818-0.012-1.207-0.029v2.995C-74.635,33.953-74.231,33.959-73.816,33.959z"/>
			</g>
		</g>
		<g>
			<path fill="#FFFFFF" d="M98.873,26.583c-1.213,0-2.193-0.98-2.193-2.193c0-1.207,0.98-2.188,2.193-2.188
				c1.207,0,2.188,0.981,2.188,2.188C101.061,25.603,100.08,26.583,98.873,26.583L98.873,26.583z M98.873,22.48
				c-1.057,0-1.915,0.858-1.915,1.909c0,1.05,0.858,1.909,1.915,1.909c1.045,0,1.903-0.859,1.903-1.909
				C100.776,23.339,99.918,22.48,98.873,22.48L98.873,22.48z"/>
			<g>
				<path fill="#FFFFFF" d="M99.013,24.686h-0.708v0.963h-0.337V23.13h1.126c0.639,0,0.882,0.268,0.882,0.761
					c0,0.406-0.174,0.69-0.604,0.771l0.569,0.986h-0.372L99.013,24.686z M99.088,24.366c0.343,0,0.54-0.099,0.54-0.464
					c0-0.366-0.187-0.447-0.546-0.447h-0.777v0.911H99.088L99.088,24.366z"/>
			</g>
		</g>
	</g>
</g>
</svg>
